<mxfile host="Electron" modified="2025-03-06T12:36:10.007Z" agent="Mozilla/5.0 (Windows NT 10.0; Win64; x64) AppleWebKit/537.36 (KHTML, like Gecko) draw.io/22.1.11 Chrome/114.0.5735.289 Electron/25.9.8 Safari/537.36" etag="O_a-4aWDp6sKsRmShrQ_" version="22.1.11" type="device">
  <diagram id="C5RBs43oDa-KdzZeNtuy" name="Page-1">
    <mxGraphModel dx="1206" dy="809" grid="1" gridSize="10" guides="1" tooltips="1" connect="1" arrows="1" fold="1" page="1" pageScale="1" pageWidth="827" pageHeight="1169" math="0" shadow="0">
      <root>
        <mxCell id="WIyWlLk6GJQsqaUBKTNV-0" />
        <mxCell id="WIyWlLk6GJQsqaUBKTNV-1" parent="WIyWlLk6GJQsqaUBKTNV-0" />
        <mxCell id="c0lbeaMSm3dweyU-7l_X-1" value="&lt;p style=&quot;margin:0px;margin-top:4px;text-align:center;&quot;&gt;&lt;i&gt;&amp;lt;&amp;lt;Interface&amp;gt;&amp;gt;&lt;/i&gt;&lt;br&gt;&lt;b&gt;Strategy&lt;/b&gt;&lt;/p&gt;&lt;hr size=&quot;1&quot;&gt;&lt;p style=&quot;margin:0px;margin-left:4px;&quot;&gt;+ field1: Type&lt;br&gt;&lt;br&gt;&lt;/p&gt;&lt;hr size=&quot;1&quot;&gt;&lt;p style=&quot;margin:0px;margin-left:4px;&quot;&gt;+ method1(Type): Type&lt;br&gt;&lt;br&gt;&lt;/p&gt;" style="verticalAlign=top;align=left;overflow=fill;fontSize=12;fontFamily=Helvetica;html=1;whiteSpace=wrap;fillColor=#e1d5e7;strokeColor=#9673a6;strokeWidth=1;" vertex="1" parent="WIyWlLk6GJQsqaUBKTNV-1">
          <mxGeometry x="449" y="120" width="190" height="140" as="geometry" />
        </mxCell>
        <mxCell id="c0lbeaMSm3dweyU-7l_X-2" value="" style="endArrow=block;dashed=1;endFill=0;endSize=12;html=1;rounded=1;entryX=0.575;entryY=0.99;entryDx=0;entryDy=0;entryPerimeter=0;strokeColor=default;strokeWidth=1;" edge="1" parent="WIyWlLk6GJQsqaUBKTNV-1">
          <mxGeometry width="160" relative="1" as="geometry">
            <mxPoint x="546" y="381" as="sourcePoint" />
            <mxPoint x="546.13" y="259.9999999999999" as="targetPoint" />
          </mxGeometry>
        </mxCell>
        <mxCell id="c0lbeaMSm3dweyU-7l_X-3" value="ConcreteStrategy1" style="swimlane;fontStyle=1;align=center;verticalAlign=top;childLayout=stackLayout;horizontal=1;startSize=26;horizontalStack=0;resizeParent=1;resizeParentMax=0;resizeLast=0;collapsible=1;marginBottom=0;whiteSpace=wrap;html=1;fillColor=#dae8fc;strokeColor=#6c8ebf;" vertex="1" parent="WIyWlLk6GJQsqaUBKTNV-1">
          <mxGeometry x="459.5" y="380" width="169" height="86" as="geometry" />
        </mxCell>
        <mxCell id="c0lbeaMSm3dweyU-7l_X-4" value="+ field: type" style="text;strokeColor=#6c8ebf;fillColor=#dae8fc;align=left;verticalAlign=top;spacingLeft=4;spacingRight=4;overflow=hidden;rotatable=0;points=[[0,0.5],[1,0.5]];portConstraint=eastwest;whiteSpace=wrap;html=1;" vertex="1" parent="c0lbeaMSm3dweyU-7l_X-3">
          <mxGeometry y="26" width="169" height="26" as="geometry" />
        </mxCell>
        <mxCell id="c0lbeaMSm3dweyU-7l_X-5" value="" style="line;strokeWidth=1;fillColor=#dae8fc;align=left;verticalAlign=middle;spacingTop=-1;spacingLeft=3;spacingRight=3;rotatable=0;labelPosition=right;points=[];portConstraint=eastwest;strokeColor=#6c8ebf;" vertex="1" parent="c0lbeaMSm3dweyU-7l_X-3">
          <mxGeometry y="52" width="169" height="8" as="geometry" />
        </mxCell>
        <mxCell id="c0lbeaMSm3dweyU-7l_X-6" value="+ method(type): type" style="text;strokeColor=#6c8ebf;fillColor=#dae8fc;align=left;verticalAlign=top;spacingLeft=4;spacingRight=4;overflow=hidden;rotatable=0;points=[[0,0.5],[1,0.5]];portConstraint=eastwest;whiteSpace=wrap;html=1;" vertex="1" parent="c0lbeaMSm3dweyU-7l_X-3">
          <mxGeometry y="60" width="169" height="26" as="geometry" />
        </mxCell>
        <mxCell id="c0lbeaMSm3dweyU-7l_X-7" value="ConcreteStrategy1" style="swimlane;fontStyle=1;align=center;verticalAlign=top;childLayout=stackLayout;horizontal=1;startSize=26;horizontalStack=0;resizeParent=1;resizeParentMax=0;resizeLast=0;collapsible=1;marginBottom=0;whiteSpace=wrap;html=1;fillColor=#dae8fc;strokeColor=#6c8ebf;" vertex="1" parent="WIyWlLk6GJQsqaUBKTNV-1">
          <mxGeometry x="645" y="380" width="169" height="86" as="geometry" />
        </mxCell>
        <mxCell id="c0lbeaMSm3dweyU-7l_X-8" value="+ field: type" style="text;strokeColor=#6c8ebf;fillColor=#dae8fc;align=left;verticalAlign=top;spacingLeft=4;spacingRight=4;overflow=hidden;rotatable=0;points=[[0,0.5],[1,0.5]];portConstraint=eastwest;whiteSpace=wrap;html=1;" vertex="1" parent="c0lbeaMSm3dweyU-7l_X-7">
          <mxGeometry y="26" width="169" height="26" as="geometry" />
        </mxCell>
        <mxCell id="c0lbeaMSm3dweyU-7l_X-9" value="" style="line;strokeWidth=1;fillColor=#dae8fc;align=left;verticalAlign=middle;spacingTop=-1;spacingLeft=3;spacingRight=3;rotatable=0;labelPosition=right;points=[];portConstraint=eastwest;strokeColor=#6c8ebf;" vertex="1" parent="c0lbeaMSm3dweyU-7l_X-7">
          <mxGeometry y="52" width="169" height="8" as="geometry" />
        </mxCell>
        <mxCell id="c0lbeaMSm3dweyU-7l_X-10" value="+ method(type): type" style="text;strokeColor=#6c8ebf;fillColor=#dae8fc;align=left;verticalAlign=top;spacingLeft=4;spacingRight=4;overflow=hidden;rotatable=0;points=[[0,0.5],[1,0.5]];portConstraint=eastwest;whiteSpace=wrap;html=1;" vertex="1" parent="c0lbeaMSm3dweyU-7l_X-7">
          <mxGeometry y="60" width="169" height="26" as="geometry" />
        </mxCell>
        <mxCell id="c0lbeaMSm3dweyU-7l_X-11" value="" style="endArrow=block;dashed=1;endFill=0;endSize=12;html=1;rounded=1;entryX=0.667;entryY=1.024;entryDx=0;entryDy=0;entryPerimeter=0;strokeColor=default;strokeWidth=1;exitX=0.359;exitY=0.016;exitDx=0;exitDy=0;exitPerimeter=0;" edge="1" parent="WIyWlLk6GJQsqaUBKTNV-1" source="c0lbeaMSm3dweyU-7l_X-7" target="c0lbeaMSm3dweyU-7l_X-1">
          <mxGeometry width="160" relative="1" as="geometry">
            <mxPoint x="556" y="391" as="sourcePoint" />
            <mxPoint x="556.13" y="269.9999999999999" as="targetPoint" />
          </mxGeometry>
        </mxCell>
        <mxCell id="c0lbeaMSm3dweyU-7l_X-12" value="ConcreteStrategy1" style="swimlane;fontStyle=1;align=center;verticalAlign=top;childLayout=stackLayout;horizontal=1;startSize=26;horizontalStack=0;resizeParent=1;resizeParentMax=0;resizeLast=0;collapsible=1;marginBottom=0;whiteSpace=wrap;html=1;fillColor=#dae8fc;strokeColor=#6c8ebf;" vertex="1" parent="WIyWlLk6GJQsqaUBKTNV-1">
          <mxGeometry x="280" y="380" width="169" height="86" as="geometry" />
        </mxCell>
        <mxCell id="c0lbeaMSm3dweyU-7l_X-13" value="+ field: type" style="text;strokeColor=#6c8ebf;fillColor=#dae8fc;align=left;verticalAlign=top;spacingLeft=4;spacingRight=4;overflow=hidden;rotatable=0;points=[[0,0.5],[1,0.5]];portConstraint=eastwest;whiteSpace=wrap;html=1;" vertex="1" parent="c0lbeaMSm3dweyU-7l_X-12">
          <mxGeometry y="26" width="169" height="26" as="geometry" />
        </mxCell>
        <mxCell id="c0lbeaMSm3dweyU-7l_X-14" value="" style="line;strokeWidth=1;fillColor=#dae8fc;align=left;verticalAlign=middle;spacingTop=-1;spacingLeft=3;spacingRight=3;rotatable=0;labelPosition=right;points=[];portConstraint=eastwest;strokeColor=#6c8ebf;" vertex="1" parent="c0lbeaMSm3dweyU-7l_X-12">
          <mxGeometry y="52" width="169" height="8" as="geometry" />
        </mxCell>
        <mxCell id="c0lbeaMSm3dweyU-7l_X-15" value="+ method(type): type" style="text;strokeColor=#6c8ebf;fillColor=#dae8fc;align=left;verticalAlign=top;spacingLeft=4;spacingRight=4;overflow=hidden;rotatable=0;points=[[0,0.5],[1,0.5]];portConstraint=eastwest;whiteSpace=wrap;html=1;" vertex="1" parent="c0lbeaMSm3dweyU-7l_X-12">
          <mxGeometry y="60" width="169" height="26" as="geometry" />
        </mxCell>
        <mxCell id="c0lbeaMSm3dweyU-7l_X-16" value="" style="endArrow=block;dashed=1;endFill=0;endSize=12;html=1;rounded=1;entryX=0.421;entryY=0.995;entryDx=0;entryDy=0;entryPerimeter=0;strokeColor=default;strokeWidth=1;exitX=0.42;exitY=0.008;exitDx=0;exitDy=0;exitPerimeter=0;" edge="1" parent="WIyWlLk6GJQsqaUBKTNV-1" source="c0lbeaMSm3dweyU-7l_X-12" target="c0lbeaMSm3dweyU-7l_X-1">
          <mxGeometry width="160" relative="1" as="geometry">
            <mxPoint x="556" y="391" as="sourcePoint" />
            <mxPoint x="556.13" y="269.9999999999999" as="targetPoint" />
          </mxGeometry>
        </mxCell>
        <mxCell id="c0lbeaMSm3dweyU-7l_X-17" value="Context" style="swimlane;fontStyle=1;align=center;verticalAlign=top;childLayout=stackLayout;horizontal=1;startSize=26;horizontalStack=0;resizeParent=1;resizeParentMax=0;resizeLast=0;collapsible=1;marginBottom=0;whiteSpace=wrap;html=1;" vertex="1" parent="WIyWlLk6GJQsqaUBKTNV-1">
          <mxGeometry x="50" y="130" width="240" height="130" as="geometry" />
        </mxCell>
        <mxCell id="c0lbeaMSm3dweyU-7l_X-18" value="- strategy:&amp;nbsp;&lt;b style=&quot;border-color: var(--border-color); text-align: center;&quot;&gt;Strategy&lt;/b&gt;" style="text;strokeColor=none;fillColor=none;align=left;verticalAlign=top;spacingLeft=4;spacingRight=4;overflow=hidden;rotatable=0;points=[[0,0.5],[1,0.5]];portConstraint=eastwest;whiteSpace=wrap;html=1;" vertex="1" parent="c0lbeaMSm3dweyU-7l_X-17">
          <mxGeometry y="26" width="240" height="26" as="geometry" />
        </mxCell>
        <mxCell id="c0lbeaMSm3dweyU-7l_X-19" value="" style="line;strokeWidth=1;fillColor=none;align=left;verticalAlign=middle;spacingTop=-1;spacingLeft=3;spacingRight=3;rotatable=0;labelPosition=right;points=[];portConstraint=eastwest;strokeColor=inherit;" vertex="1" parent="c0lbeaMSm3dweyU-7l_X-17">
          <mxGeometry y="52" width="240" height="8" as="geometry" />
        </mxCell>
        <mxCell id="c0lbeaMSm3dweyU-7l_X-20" value="+ Context(strategy):&amp;nbsp;&lt;b style=&quot;border-color: var(--border-color); text-align: center;&quot;&gt;Strategy&lt;br&gt;&lt;/b&gt;&lt;br&gt;+ setStragegy(strategy):&amp;nbsp;&lt;b style=&quot;border-color: var(--border-color); text-align: center;&quot;&gt;Strategy&lt;/b&gt;" style="text;strokeColor=none;fillColor=none;align=left;verticalAlign=top;spacingLeft=4;spacingRight=4;overflow=hidden;rotatable=0;points=[[0,0.5],[1,0.5]];portConstraint=eastwest;whiteSpace=wrap;html=1;" vertex="1" parent="c0lbeaMSm3dweyU-7l_X-17">
          <mxGeometry y="60" width="240" height="70" as="geometry" />
        </mxCell>
        <mxCell id="c0lbeaMSm3dweyU-7l_X-21" value="" style="endArrow=diamondThin;endFill=0;endSize=24;html=1;rounded=0;entryX=1;entryY=0.5;entryDx=0;entryDy=0;exitX=0.005;exitY=0.143;exitDx=0;exitDy=0;exitPerimeter=0;" edge="1" parent="WIyWlLk6GJQsqaUBKTNV-1" source="c0lbeaMSm3dweyU-7l_X-1" target="c0lbeaMSm3dweyU-7l_X-18">
          <mxGeometry width="160" relative="1" as="geometry">
            <mxPoint x="90" y="350" as="sourcePoint" />
            <mxPoint x="250" y="350" as="targetPoint" />
          </mxGeometry>
        </mxCell>
      </root>
    </mxGraphModel>
  </diagram>
</mxfile>
